<?xml version="1.0" encoding="UTF-8"?>
<svg xmlns="http://www.w3.org/2000/svg" xmlns:xlink="http://www.w3.org/1999/xlink" width="256px" height="256px" viewBox="0 0 256 256" version="1.1">
<g id="surface1">
<path style=" stroke:none;fill-rule:nonzero;fill:rgb(7.058824%,21.176471%,31.764706%);fill-opacity:1;" d="M 92.355469 0.109375 C 79.378906 1.355469 69.769531 12.8125 69.769531 25.84375 L 69.769531 69.660156 C 69.769531 69.660156 69.769531 69.769531 69.660156 69.769531 L 25.84375 69.769531 C 12.8125 69.769531 1.355469 79.378906 0.109375 92.355469 C -1.304688 107.125 10.425781 119.71875 24.976562 119.71875 L 114.074219 119.71875 C 117.167969 119.71875 119.71875 117.167969 119.71875 114.074219 L 119.71875 24.976562 C 119.71875 10.425781 107.125 -1.304688 92.355469 0.109375 Z M 92.355469 0.109375 "/>
<path style=" stroke:none;fill-rule:nonzero;fill:rgb(7.058824%,21.176471%,31.764706%);fill-opacity:1;" d="M 163.699219 0.109375 C 176.675781 1.355469 186.285156 12.8125 186.285156 25.84375 L 186.285156 69.660156 C 186.285156 69.660156 186.285156 69.769531 186.394531 69.769531 L 230.210938 69.769531 C 243.242188 69.769531 254.695312 79.378906 255.945312 92.355469 C 257.355469 107.125 245.628906 119.71875 231.078125 119.71875 L 141.980469 119.71875 C 138.886719 119.71875 136.335938 117.167969 136.335938 114.074219 L 136.335938 24.976562 C 136.335938 10.480469 148.875 -1.25 163.699219 0.109375 Z M 163.699219 0.109375 "/>
<path style=" stroke:none;fill-rule:nonzero;fill:rgb(7.058824%,21.176471%,31.764706%);fill-opacity:1;" d="M 92.355469 255.890625 C 79.378906 254.644531 69.769531 243.1875 69.769531 230.15625 L 69.769531 186.339844 C 69.769531 186.339844 69.769531 186.230469 69.660156 186.230469 L 25.84375 186.230469 C 12.8125 186.230469 1.355469 176.621094 0.109375 163.644531 C -1.304688 148.875 10.425781 136.28125 24.976562 136.28125 L 114.074219 136.28125 C 117.167969 136.28125 119.71875 138.832031 119.71875 141.925781 L 119.71875 231.023438 C 119.71875 245.519531 107.179688 257.25 92.355469 255.890625 Z M 92.355469 255.890625 "/>
<path style=" stroke:none;fill-rule:nonzero;fill:rgb(7.058824%,21.176471%,31.764706%);fill-opacity:1;" d="M 163.699219 255.890625 C 176.675781 254.644531 186.285156 243.1875 186.285156 230.15625 L 186.285156 186.339844 C 186.285156 186.339844 186.285156 186.230469 186.394531 186.230469 L 230.210938 186.230469 C 243.242188 186.230469 254.695312 176.621094 255.945312 163.644531 C 257.355469 148.875 245.628906 136.28125 231.078125 136.28125 L 141.980469 136.28125 C 138.886719 136.28125 136.335938 138.832031 136.335938 141.925781 L 136.335938 231.023438 C 136.335938 245.519531 148.875 257.25 163.699219 255.890625 Z M 163.699219 255.890625 "/>
<path style=" stroke:none;fill-rule:nonzero;fill:rgb(93.72549%,28.627451%,31.764706%);fill-opacity:1;" d="M 128.027344 180.421875 C 125.203125 180.421875 122.542969 179.335938 120.535156 177.328125 L 85.515625 142.253906 C 79.652344 136.386719 76.445312 128.679688 76.445312 120.480469 C 76.445312 112.28125 79.703125 104.410156 85.570312 98.652344 C 91.378906 92.84375 99.089844 89.640625 107.285156 89.640625 C 115.484375 89.640625 122.378906 92.519531 128.082031 97.730469 C 133.621094 92.574219 141.003906 89.640625 148.875 89.640625 C 157.183594 89.640625 164.894531 92.898438 170.703125 98.761719 C 176.511719 104.464844 179.714844 112.226562 179.714844 120.480469 C 179.714844 128.734375 176.457031 136.550781 170.59375 142.308594 L 135.574219 177.328125 C 133.566406 179.335938 130.90625 180.421875 128.082031 180.421875 Z M 128.027344 180.421875 "/>
<path style=" stroke:none;fill-rule:nonzero;fill:rgb(100%,100%,100%);fill-opacity:1;" d="M 148.769531 96.917969 C 155.28125 96.917969 161.148438 99.523438 165.382812 103.867188 C 169.671875 108.101562 172.332031 113.964844 172.332031 120.480469 C 172.332031 126.996094 169.726562 132.859375 165.382812 137.09375 L 130.363281 172.113281 C 129.710938 172.765625 128.839844 173.09375 128.027344 173.09375 C 127.210938 173.09375 126.34375 172.765625 125.691406 172.113281 L 90.671875 137.09375 C 86.382812 132.804688 83.722656 126.941406 83.722656 120.480469 C 83.722656 114.019531 86.328125 108.101562 90.671875 103.867188 C 94.960938 99.578125 100.824219 96.917969 107.285156 96.917969 C 113.746094 96.917969 119.664062 99.523438 123.902344 103.867188 C 125.582031 105.550781 126.941406 107.394531 128.082031 109.402344 C 129.167969 107.339844 130.578125 105.441406 132.261719 103.867188 C 136.496094 99.578125 142.359375 96.917969 148.875 96.917969 M 148.875 82.3125 C 141.382812 82.3125 134.214844 84.429688 128.136719 88.445312 C 122.054688 84.484375 114.886719 82.3125 107.339844 82.3125 C 97.1875 82.3125 87.632812 86.273438 80.410156 93.496094 C 73.242188 100.554688 69.226562 110.164062 69.226562 120.425781 C 69.226562 130.6875 73.1875 140.136719 80.410156 147.355469 L 115.429688 182.375 C 118.796875 185.742188 123.304688 187.644531 128.082031 187.644531 C 132.859375 187.644531 137.367188 185.796875 140.730469 182.375 L 175.753906 147.355469 C 182.972656 140.296875 186.9375 130.6875 186.9375 120.425781 C 186.9375 110.164062 182.917969 100.554688 175.644531 93.386719 C 168.640625 86.273438 159.03125 82.257812 148.769531 82.257812 Z M 148.875 82.3125 "/>
</g>
</svg>
